<svg width="16" height="16" viewBox="0 0 16 16" fill="none" xmlns="http://www.w3.org/2000/svg">
<path fill-rule="evenodd" clip-rule="evenodd" d="M7.25282 10.6978V10.6985L7.54199 10.197L7.99948 9.40455L8.51785 10.3024L8.74624 10.6985V10.698L10.7517 14.1715L12.045 13.4247L10.1715 10.1798L13.4165 12.0533L14.1632 10.7599L10.8235 8.83178H14.5332V7.33836H10.749L13.8992 5.51956L13.1525 4.22622L9.90753 6.09971L11.781 2.85474L10.4877 2.10803L8.74624 5.1243V1.73804H7.25282V5.12445L5.51129 2.10803L4.21795 2.85474L6.09142 6.09968L2.84649 4.22622L2.09978 5.51956L5.25002 7.33836H1.46582V8.83178H5.17546L1.8358 10.7599L2.58251 12.0533L5.82744 10.1798L3.95397 13.4247L5.24731 14.1715L7.25282 10.6978Z" fill="black"/>
</svg>
